#!OML:ASF F:\VICON\USERDATA\INSTALL\rory3\rory3.ASF
:FULLY-SPECIFIED
:DEGREES
2661
root -4.26169 17.5945 -6.68495 17.4719 65.5383 15.637
lowerback 7.6323 1.55486 2.51188
upperback 3.50425 2.45039 5.1863
thorax -0.776931 1.27329 3.75205
lowerneck -9.38162 -16.4577 -13.9607
upperneck 18.4509 -20.6517 2.9484
head 9.08119 -10.3631 0.641718
rclavicle 1.43125e-014 -2.22639e-014
rhumerus 10.024 44.67 -99.755
rradius 39.1297
rwrist 28.5807
rhand -23.2802 -3.32304
rfingers 7.12502
rthumb 3.17247 -33.2792
lclavicle 1.43125e-014 -2.22639e-014
lhumerus 9.36184 18.3516 66.0656
lradius 22.832
lwrist -28.8846
lhand -21.6905 35.1878
lfingers 7.12502
lthumb 4.70766 425.116
rfemur -27.9188 -9.02694 5.53122
rtibia 33.2759
rfoot -13.1848 -16.6895
rtoes 20.4928
lfemur -10.0148 -2.17408 -25.9261
ltibia 26.2899
lfoot -15.8515 -0.577345
ltoes -12.7985
2662
root -4.25921 17.5963 -6.69602 17.4783 65.4551 15.6251
lowerback 7.60458 1.56642 2.45939
upperback 3.48318 2.45868 5.13959
thorax -0.784021 1.27629 3.7324
lowerneck -9.38074 -16.4138 -13.9051
upperneck 18.4348 -20.6057 2.96964
head 9.06765 -10.3369 0.650442
rclavicle 5.56597e-014 1.59028e-014
rhumerus 10.0801 44.3782 -99.5782
rradius 39.2735
rwrist 28.6022
rhand -23.3631 -3.4421
rfingers 7.12502
rthumb 3.09243 -33.3994
lclavicle 5.56597e-014 1.59028e-014
lhumerus 9.1857 17.9827 65.9474
lradius 23.252
lwrist -28.985
lhand -21.4636 34.8657
lfingers 7.12502
lthumb 4.9267 424.788
rfemur -27.9034 -8.92738 5.46927
rtibia 33.1551
rfoot -13.2009 -16.7368
rtoes 20.6875
lfemur -10.0335 -1.98147 -25.9806
ltibia 26.2578
lfoot -15.868 -0.636431
ltoes -12.9827
2663
root -4.25535 17.598 -6.70759 17.4526 65.3287 15.5925
lowerback 7.61422 1.55841 2.41031
upperback 3.45567 2.44298 5.07647
thorax -0.816449 1.26721 3.6945
lowerneck -9.39186 -16.3568 -13.7437
upperneck 18.4322 -20.5384 2.89527
head 9.03628 -10.3032 0.61974
rclavicle 7.95139e-014 6.04305e-014
rhumerus 10.1001 44.3267 -99.3086
rradius 39.575
rwrist 28.5317
rhand -23.4377 -3.67356
rfingers 7.12502
rthumb 3.02042 -33.6319
lclavicle 7.95139e-014 6.04305e-014
lhumerus 8.8889 17.5328 65.7369
lradius 23.7624
lwrist -29.0203
lhand -21.2923 34.1883
lfingers 7.12502
lthumb 5.09208 424.107
rfemur -27.8909 -8.93619 5.43833
rtibia 33.03
rfoot -12.9909 -16.727
rtoes 20.2092
lfemur -10.0066 -1.73537 -26.0447
ltibia 26.2047
lfoot -15.8512 -0.658365
ltoes -13.6204
2664
root -4.25036 17.5992 -6.71552 17.3901 65.1528 15.4854
lowerback 7.54588 1.56621 2.29457
upperback 3.41731 2.43959 5.02515
thorax -0.820787 1.2635 3.70748
lowerneck -9.32551 -16.3331 -13.6841
upperneck 18.4627 -20.523 2.88045
head 9.02577 -10.2953 0.615447
rclavicle -2.46493e-014 1.90833e-014
rhumerus 9.8903 44.1415 -99.2701
rradius 39.9016
rwrist 28.6073
rhand -23.5518 -3.56513
rfingers 7.12502
rthumb 2.91019 -33.525
lclavicle -2.46493e-014 1.90833e-014
lhumerus 8.4138 16.3278 65.3286
lradius 24.4716
lwrist -28.0964
lhand -21.4571 34.5052
lfingers 7.12502
lthumb 4.933 424.428
rfemur -27.9333 -8.95695 5.45581
rtibia 32.9085
rfoot -12.6807 -16.6479
rtoes 20.1099
lfemur -9.99024 -1.49057 -26.0643
ltibia 26.1526
lfoot -15.8476 -0.71208
ltoes -13.7116
2665
root -4.24439 17.6034 -6.72458 17.3602 64.9564 15.4287
lowerback 7.46356 1.58135 2.1655
upperback 3.41113 2.44396 4.98968
thorax -0.785662 1.26384 3.74499
lowerneck -9.27062 -16.3083 -13.8276
upperneck 18.458 -20.4959 2.99359
head 9.04156 -10.2823 0.67549
rclavicle -3.89618e-014 -1.59028e-014
rhumerus 9.72473 43.8468 -99.2303
rradius 40.1537
rwrist 28.9071
rhand -23.5691 -3.52408
rfingers 7.12502
rthumb 2.89355 -33.4842
lclavicle -3.89618e-014 -1.59028e-014
lhumerus 7.95265 14.9888 64.9722
lradius 25.2132
lwrist -26.8883
lhand -21.5168 35.1307
lfingers 7.12502
lthumb 4.87535 425.055
rfemur -27.949 -8.81719 5.40891
rtibia 32.7764
rfoot -12.5053 -16.6659
rtoes 19.9756
lfemur -9.98533 -1.23039 -26.1127
ltibia 26.1402
lfoot -15.9025 -0.855748
ltoes -12.8437
